<?xml version="1.0" encoding="UTF-8" standalone="no"?>
<!-- Created with Inkscape (http://www.inkscape.org/) -->

<svg
   xmlns:dc="http://purl.org/dc/elements/1.1/"
   xmlns:cc="http://creativecommons.org/ns#"
   xmlns:rdf="http://www.w3.org/1999/02/22-rdf-syntax-ns#"
   xmlns:svg="http://www.w3.org/2000/svg"
   xmlns="http://www.w3.org/2000/svg"
   xmlns:sodipodi="http://sodipodi.sourceforge.net/DTD/sodipodi-0.dtd"
   xmlns:inkscape="http://www.inkscape.org/namespaces/inkscape"
   id="svg2"
   version="1.1"
   inkscape:version="0.48.4 r9939"
   width="150.00812"
   height="150.03098"
   sodipodi:docname="logoAgileToulouse.svg">
  <title
     id="title2992">Agile Toulouse Logo de l'assosication </title>
  <sodipodi:namedview
     pagecolor="#ffffff"
     bordercolor="#666666"
     borderopacity="1"
     objecttolerance="10"
     gridtolerance="10"
     guidetolerance="10"
     inkscape:pageopacity="0"
     inkscape:pageshadow="2"
     inkscape:window-width="1920"
     inkscape:window-height="1025"
     id="namedview13"
     showgrid="false"
     inkscape:zoom="0.76371589"
     inkscape:cx="-193.40476"
     inkscape:cy="400.65068"
     inkscape:window-x="-2"
     inkscape:window-y="-3"
     inkscape:window-maximized="1"
     inkscape:current-layer="svg2"
     fit-margin-top="0"
     fit-margin-left="0"
     fit-margin-right="0"
     fit-margin-bottom="0" />
  <metadata
     id="metadata8">
    <rdf:RDF>
      <cc:Work
         rdf:about="">
        <dc:format>image/svg+xml</dc:format>
        <dc:type
           rdf:resource="http://purl.org/dc/dcmitype/StillImage" />
        <dc:title>Agile Toulouse Logo de l'assosication </dc:title>
        <dc:language>française</dc:language>
        <dc:subject>
          <rdf:Bag>
            <rdf:li>Agile</rdf:li>
            <rdf:li>Toulouse</rdf:li>
            <rdf:li>Association</rdf:li>
            <rdf:li></rdf:li>
          </rdf:Bag>
        </dc:subject>
        <dc:description>logo de l'association Agile toulouse</dc:description>
      </cc:Work>
    </rdf:RDF>
  </metadata>
  <defs
     id="defs6" />
  <g
     id="g3933"
     transform="matrix(0.15028746,0,0,0.15011026,-237.67026,9.1277598)"
     width="150px"
     height="150px"><g
   transform="translate(-402.37785,-33.585248)"
   id="g3920">
  <g
     id="g2994"><path
   sodipodi:nodetypes="ccccccccssssscssccccsccccsssscssssccccscscccscc"
   inkscape:connector-curvature="0"
   id="path3861"
   d="m 2634.7106,716.62272 c 1.3283,-7.887 13.2316,-82.4952 13.2316,-82.4952 l -2.4241,-17.35397 c -8.2424,-67.32967 -28.9431,-136.48949 -48.4728,-185.5711 -24.3748,-60.65629 -59.8497,-90.554 -115.5546,-97.64667 -202.4338,-8.40275 -205.6007,544.03214 11.7047,550.13885 105.5269,-0.99027 130.258,-99.9999 141.5152,-167.07191 z M 2436.6274,311.44695 c 17.1922,-3.04569 20.6324,-3.39592 33.5549,-3.41607 20.9121,-0.0325 39.698,4.76511 59.98,15.31823 40.9849,21.32523 74.332,60.79222 97.8183,115.76987 9.6493,22.58755 17.6525,52.84775 22.5087,85.10795 0.669,4.44408 4.4208,8.35818 8.0115,8.35818 4.7921,0 6.2233,-2.85736 21.5034,-84.67756 15.2802,-81.8202 17.7788,-94.95666 19.1408,-101.99864 1.362,-7.04197 3.442,-18.44995 4.6223,-25.35109 l 2.1459,-12.54754 39.0938,0 39.0937,0 -0.6318,3.84109 c -0.3476,2.11257 -1.0554,5.45435 -1.5727,7.42609 -0.5173,1.97175 -2.0398,9.11615 -3.3835,15.87645 -1.3436,6.76028 -3.8067,18.74444 -5.4737,26.63144 -1.6671,7.88701 -4.1187,19.64069 -40.213,186.43309 -36.0943,166.79239 -36.6097,169.78434 -35.1004,175.52012 1.3971,5.30992 12.5464,38.01004 16.459,48.27349 12.7054,33.32784 26.4353,55.4939 40.6405,65.61181 6.3759,4.54138 20.3172,8.13681 31.55,8.13681 8.0082,0 10.5366,-0.44391 16.8744,-2.96244 13.393,-5.32229 26.6444,-18.38204 33.0196,-32.54228 3.4139,-7.58239 6.3007,-17.4601 6.3007,-21.55837 0,-1.40205 0.5988,-2.34552 1.4887,-2.34552 1.9756,0 2.0425,-1.39508 -1.5746,32.77718 -2.8662,27.07833 -15.3469,56.6746 -30.9884,73.48488 -7.5482,8.11236 -14.7991,13.10451 -24.4213,16.81459 -6.3329,2.44169 -9.0285,2.90221 -16.9587,2.89719 -8.604,-0.0103 -9.8722,-0.26826 -14.4948,-3.00444 l 0,-2.3e-4 c -14.7234,-8.71503 -30.117,-39.12466 -52.6553,-104.02009 -4.1087,-11.8305 -9.2581,-27.04116 -11.4427,-33.80145 -2.1849,-6.76029 -4.7805,-13.15573 -5.7681,-14.21198 -3.6493,-3.90293 -10.0318,-1.49135 -11.3821,4.30057 -0.83,3.56124 -15.4262,34.15033 -19.1477,40.12786 -1.5781,2.53511 -4.8466,7.82699 -7.2628,11.75973 -21.3155,34.69308 -53.1641,66.85006 -80.0486,80.82338 -18.8411,9.7927 -81.4708,24.73677 -92.0894,26.45342 -351.4376,-72.382 -308.6743,-561.60626 -39.1966,-609.30572 z"
   style="fill:#cd2129;fill-opacity:1;stroke:#000000;stroke-width:7.66292953;stroke-miterlimit:4;stroke-opacity:1;stroke-dasharray:none" />
<path
   sodipodi:nodetypes="sscsssssssssssscsssssssssccsssssscsssssscssscsssscssscssssssss"
   inkscape:connector-curvature="0"
   id="path3891"
   d="m 2536.8889,966.23016 c -40.6336,-3.14982 -73.8622,-3.72219 -108.0473,-1.86079 -11.114,0.60509 -20.8602,0.94495 -21.6582,0.75523 -1.2024,-0.28598 -0.7849,-4.05268 2.4376,-21.9951 4.4442,-24.74334 10.1669,-58.2339 12.4751,-73.00585 0.8654,-5.53838 2.0176,-12.56204 2.5603,-15.60812 0.5427,-3.0461 1.6955,-10.29634 2.5616,-16.11163 0.8661,-5.8153 1.9905,-13.06553 2.4988,-16.11164 0.5082,-3.04611 1.2003,-8.03064 1.5379,-11.07675 0.3378,-3.04611 1.0533,-8.48378 1.5902,-12.08373 5.4178,-36.32849 7.3461,-122.49113 5.0481,-225.5629 -1.6447,-73.77217 -4.0506,-151.39462 -5.1186,-165.14427 -2.0518,-26.41541 -3.1149,-38.02965 -4.1941,-45.81746 -2.0788,-15.00145 -2.2016,-14.52308 4.7296,-18.41888 22.0452,-12.39103 49.6727,-14.70066 74.6873,-6.24377 12.6056,4.26172 30.4002,14.65318 29.0077,16.93959 -0.2258,0.37082 -1.8003,7.47131 -3.4988,15.77887 -2.7536,13.46783 -3.862,19.91294 -7.2735,42.29305 -0.8915,5.84794 -2.8105,24.84352 -5.1372,50.85235 -1.7609,19.68224 -2.3104,131.5873 -1.0113,205.92685 0.6485,37.10711 1.353,69.95974 1.5655,73.00585 0.2125,3.0461 0.6501,16.41373 0.9724,29.70583 0.7777,32.0765 3.902,61.43178 10.1814,95.6628 0.9144,4.98454 2.0844,11.55507 2.6,14.60117 1.4845,8.77118 5.7589,27.51707 13.03,57.14657 l 6.7342,27.44063 -4.0619,-0.14037 c -2.2341,-0.0775 -8.6316,-0.49453 -14.2168,-0.92753 z m 5.1598,-636.21764 c -0.7897,-1.267 -18.218,-9.69078 -26.1588,-12.64358 -3.7303,-1.38711 -11.4987,-3.77473 -17.2632,-5.30584 -9.8685,-2.62117 -11.6973,-2.78148 -31.2982,-2.74365 -20.9345,0.0404 -23.5563,0.31594 -42.1057,4.42494 l -10.1181,2.2413 -2.32,-2.87068 c -1.2761,-1.57888 -3.9375,-5.91498 -5.9143,-9.6358 -6.097,-11.47608 -9.3005,-14.36708 -30.3663,-27.40409 -35.2115,-21.7912 -61.3139,-28.05667 -106.8149,-25.63918 -67.2117,3.57098 -86.1774,6.82285 -146.3876,25.09965 -7.1046,2.15661 -26.1063,4.64737 -40.8644,5.35655 l -9.671,0.46473 -6.5767,-10.13686 c -7.2689,-11.2038 -26.1212,-37.92608 -33.9311,-48.09579 -6.5904,-8.58169 -13.2448,-20.36306 -24.6264,-32.79663 l -9.3307,-10.19307 5.2688,-0.62765 c 2.8977,-0.34519 65.8167,-0.62778 139.8199,-0.62793 74.0032,-1.6e-4 249.7068,-0.46789 390.4525,-1.03941 140.7457,-0.57153 295.0396,-0.0422 342.8411,-1.2672 l 86.94,-0.22806 -4.0097,4.53139 c -5.0852,5.74679 -31.6071,41.32364 -36.3799,47.31377 -11.5373,14.48001 -19.3574,28.26305 -23.8417,42.02141 -1.4001,4.29563 -2.7475,8.36248 -2.9942,9.03747 -0.324,0.88631 -2.7881,0.40494 -8.8704,-1.7328 -23.8104,-8.36883 -58.6393,-16.69516 -88.1369,-21.07038 -31.2719,-4.63836 -42.9674,-5.4518 -78.6998,-5.47369 -40.6234,-0.0249 -55.6415,1.36972 -79.3147,7.36526 -17.5339,4.44071 -29.2494,9.13382 -42.4538,17.00658 -13.5386,8.07202 -36.5457,24.81798 -40.7716,29.6761 -2.0181,2.31988 -6.0282,9.07029 -8.9114,15.00092 -5.0972,10.48466 -6.0547,11.81515 -7.1908,9.99222 z"
   style="fill:#3f4040;fill-opacity:1;stroke:#000000;stroke-width:9.50546837;stroke-miterlimit:4;stroke-opacity:1;stroke-dasharray:none" />
Initiales Stylisees</g>
</g>
<g
   transform="translate(278.51827,10.480635)"
   id="g3826">
  <g
     id="g3790"
     transform="translate(1188.9982,-209.63142)">
    <path
       style="fill:#cd2129;fill-opacity:1;stroke:#d60000;stroke-opacity:1"
       d="m 246.29049,336.85089 0,-2.06574 c 0,-5.68178 4.88084,-8.22961 13.94949,-7.28175 5.23006,0.54665 6.3784,0.29001 11.92113,-2.66424 10.86883,-5.79302 18.19161,-16.14916 19.72327,-27.89336 l 0.70492,-5.40508 -3.89941,0.69186 c -2.14467,0.38052 -6.5994,1.16555 -9.8994,1.7445 -12.06712,2.11705 -25.68769,-1.31388 -32.58065,-8.20684 -11.24352,-11.24352 -16.17899,-36.11129 -10.89977,-54.91935 7.29495,-25.98942 22.5577,-40.53099 46.2531,-44.0676 5.18424,-0.77377 8.40429,-1.90609 11.3908,-4.00555 4.58752,-3.22495 9.28467,-3.69685 15.2696,-1.53409 5.40128,1.95186 5.7123,3.19647 3.72091,14.89017 -3.6249,21.28602 -4.21598,67.52327 -0.97859,76.55107 1.40789,3.92606 1.40586,4.96145 -0.0215,11 -0.86663,3.6663 -2.07171,10.42946 -2.67797,15.02924 -1.97488,14.98371 -8.61816,28.20723 -17.84244,35.51554 l -3.63349,2.87878 c -4.66542,2.6405 -41.39666,24.07201 -40.5,-0.25756 z m 38.91224,-62.2221 c 7.57764,-3.76243 7.58776,-3.81573 7.58776,-39.97684 0,-24.70046 -0.28744,-31.98619 -1.30192,-33 -2.23727,-2.23579 -11.07908,-1.45205 -17.32447,1.53565 -9.9167,4.744 -17.06861,14.21097 -20.51684,27.15814 -2.76867,10.39558 -1.32196,28.90449 2.89244,37.00515 5.14772,9.89464 17.2195,12.95981 28.66303,7.2779 z m -165.41224,22.87376 -5,-1.15634 -0.31103,-4.90038 c -0.27526,-4.33684 0.43779,-6.40659 6.20041,-17.99766 13.49211,-27.13836 22.79744,-47.83821 31.96082,-71.09728 5.2004,-13.2 11.07404,-27.36231 13.05254,-31.47179 1.97849,-4.10948 3.59726,-8.01192 3.59726,-8.67208 0,-1.94123 8.09546,-8.30445 12.08636,-9.50015 2.43836,-0.73055 4.64295,-0.78095 6.54522,-0.14964 2.50108,0.83005 2.94776,1.58214 3.48797,5.87281 0.34076,2.70647 2.85799,10.32085 5.59386,16.92085 2.73587,6.6 7.79768,20.1 11.24845,30 3.45078,9.9 9.53934,26.1 13.53015,36 3.9908,9.9 7.81984,19.8 8.50897,22 0.68912,2.2 2.54111,6.70524 4.11553,10.01164 3.57877,7.51569 4.19711,15.37934 1.44818,18.41688 -2.14643,2.37177 -7.4304,4.05785 -12.74211,4.0659 -4.27705,0.006 -7.82094,-3.56193 -7.8251,-7.87928 -0.004,-4.14874 -4.6546,-20.40285 -7.86082,-27.47401 -1.6109,-3.55277 -3.84607,-6.95043 -4.96704,-7.55035 -1.30127,-0.69642 -10.28692,-1.09022 -24.85388,-1.08923 -27.66806,0.002 -28.1319,0.1421 -33.0767,9.99845 -1.79353,3.575 -4.60778,11.9 -6.25389,18.5 -3.47118,13.91755 -4.33476,15.88263 -7.64207,17.38954 -2.89294,1.31812 -4.24308,1.2885 -10.84308,-0.23788 z m 74.16157,-60.77244 c 1.73887,-0.53678 3.41465,-1.63545 3.72396,-2.4415 0.55147,-1.43712 -11.04822,-36.36542 -15.17585,-45.6966 -1.16946,-2.64378 -2.767,-4.74112 -3.61128,-4.74112 -1.89477,0 -17.59795,31.63098 -20.53082,41.35533 -2.80313,9.29416 -2.69732,11.23702 0.68242,12.53037 3.25589,1.24595 30.12419,0.47136 34.91157,-1.00648 z m 241.08435,60.03511 c -6.60291,-1.55619 -14.06855,-6.03114 -19.73504,-11.8293 -10.84695,-11.09899 -16.23718,-25.86084 -16.26667,-44.54837 -0.021,-13.31454 1.38787,-20.68756 5.78117,-30.25423 4.31658,-9.39963 10.76581,-15.83441 20.87978,-20.83301 7.21761,-3.56713 8.46447,-3.86173 16.45215,-3.88712 7.2552,-0.0231 9.52565,0.38863 14.14269,2.56447 10.35667,4.88074 16.1188,12.75371 19.45602,26.58334 1.65341,6.85184 1.65334,7.44811 -10e-4,12 -2.21181,6.08268 -4.69873,8.28989 -9.34089,8.28989 -3.99544,0 -23.75653,4.58995 -36.85224,8.55975 -9.02509,2.73585 -10.12079,4.05692 -8.872,10.69682 0.99576,5.29456 6.064,15.00562 9.65457,18.49876 4.17181,4.05861 10.62158,7.24467 14.66593,7.24467 4.18297,0 14.83005,-3.43195 20.14168,-6.49242 5.32242,-3.06667 10.64355,-3.31854 12.11275,-0.57332 1.72569,3.22448 1.2237,11.2443 -0.92434,14.76719 -2.6269,4.30827 -5.64312,5.65901 -18.23863,8.16774 -11.27667,2.24604 -16.88232,2.50015 -23.05593,1.04514 z m 0.37576,-70.93913 c 13.90312,-2.83327 20.72649,-5.52207 21.4633,-8.45776 0.89292,-3.55768 -2.89317,-11.12613 -6.73438,-13.4621 -4.91791,-2.99076 -11.03188,-3.60009 -16.03533,-1.5981 -9.02355,3.6105 -15.23158,11.17555 -15.99748,19.49437 -0.26155,2.84076 0.12465,3.67879 2.18221,4.73526 3.25625,1.67195 3.47578,1.66162 15.12168,-0.71167 z m -106.11312,67.32375 c -2.82007,-2.51972 -3.25218,-3.51987 -3.07422,-7.11539 0.11389,-2.30096 0.16052,-5.64606 0.10362,-7.43356 -0.0569,-1.7875 -0.20613,-21.61512 -0.33162,-44.06138 -0.25779,-46.10897 -0.87809,-42.69233 8.09288,-44.57595 7.46532,-1.56748 11.72388,-1.39305 13.32834,0.54592 1.6324,1.97274 1.62716,12.10751 -0.0185,35.82434 -0.60999,8.79062 -1.10906,22.86757 -1.10906,31.28212 0,16.91242 0.68541,19.78991 5.87684,24.67204 2.26948,2.13427 3.12316,3.83634 3.12316,6.22695 0,4.93877 -3.32707,6.64002 -13.98187,7.14944 -8.50284,0.40652 -8.81304,0.34157 -12.00957,-2.51453 z m 44.3103,-0.3145 c -4.61988,-2.34833 -6.70977,-4.9566 -7.59946,-9.48445 -0.32421,-1.65 0.32041,-14.025 1.4325,-27.5 2.15562,-26.11942 2.12588,-35.89393 -0.24395,-80.17889 -1.40384,-26.23346 -1.00171,-29.79873 3.87063,-34.31661 2.28934,-2.1228 3.66285,-2.5045 9.01223,-2.5045 l 6.31124,0 1.5332,3.66946 c 1.3834,3.31093 1.37762,4.22398 -0.0592,9.34461 -1.17111,4.1738 -1.84206,13.71875 -2.53625,36.08053 -0.84364,27.17628 -0.54572,80.19272 0.47992,85.4054 0.21644,1.1 2.0228,2.87709 4.01415,3.94908 3.5557,1.91413 6.46609,5.9585 6.46609,8.98548 0,0.84364 -1.29065,2.97838 -2.86812,4.74387 -2.56388,2.86948 -3.5451,3.24825 -9.25,3.57066 -5.02916,0.28422 -7.26813,-0.0898 -10.56302,-1.76464 z M 334.29049,173.80976 c -7.07782,-4.34005 -8.78338,-9.52208 -5.11432,-15.53891 5.22342,-8.5658 19.01008,-8.07608 24.07917,0.85533 1.31752,2.32138 1.26723,3.05562 -0.5,7.29995 -3.50076,8.40776 -11.54734,11.62539 -18.46485,7.38363 z"
       inkscape:connector-curvature="0"
       sodipodi:nodetypes="csssscssssssssssssccssssssssscsssssssssssssscssssssssssssssssssssssscssssssssssssssssssssssssssssccssssscsssssssscsssss"
       id="path3792">Agile</path>
    <path
       inkscape:connector-curvature="0"
       d="m 729.51745,296.64902 c -2.2,-0.2193 -4.423,-0.81417 -4.94,-1.32195 -0.517,-0.50777 -0.8349,-4.47007 -0.7063,-8.80512 0.3149,-10.62247 -1.0212,-10.99942 -11.3513,-3.20242 -7.4487,5.62211 -13.6107,8.29381 -22.2672,9.65444 -9.4059,1.47841 -19.036,-5.92243 -23.2909,-17.89923 -3.0518,-8.59042 -3.8016,-33.09692 -1.5343,-50.14925 0.8745,-6.57716 1.59,-15.86707 1.59,-20.64425 0,-8.2048 0.1607,-8.85776 2.9013,-11.79153 2.4074,-2.57723 3.6608,-3.10576 7.3651,-3.10576 5.2088,0 9.7336,2.94603 9.7336,6.33739 0,1.20573 -0.8554,3.7883 -1.9009,5.73906 -3.3518,6.25371 -4.1598,11.03366 -5.1192,30.28688 -1.0257,20.58195 -0.1488,34.47553 2.4992,39.59621 2.0182,3.90281 7.0134,7.03181 11.2334,7.03672 4.9938,0.006 14.1354,-3.86518 18.5786,-7.86706 5.2164,-4.69833 7.3027,-9.58436 8.7507,-20.49369 1.6432,-12.38052 0.7634,-41.94148 -1.5319,-51.47472 -1.7363,-7.21104 -1.732,-7.38567 0.2451,-10 1.7673,-2.33689 2.6726,-2.6482 7.4366,-2.5574 10.8966,0.20771 13.553,3.74518 11.1985,14.91262 -0.8476,4.01997 -1.2827,16.00309 -1.3259,36.51022 -0.065,30.9055 0.8641,44.47293 3.4729,50.71672 1.7811,4.26275 0.7198,6.62326 -3.6652,8.15187 -1.7437,0.60785 -3.2157,1.02953 -3.2711,0.93708 -0.055,-0.0925 -1.9008,-0.34753 -4.1008,-0.56683 z m 223.0001,0 c -2.2,-0.2193 -4.4231,-0.81417 -4.9401,-1.32195 -0.517,-0.50777 -0.8349,-4.47007 -0.7063,-8.80512 0.315,-10.62247 -1.0212,-10.99942 -11.3513,-3.20242 -7.4487,5.62211 -13.6107,8.29381 -22.2672,9.65444 -9.4059,1.47841 -19.036,-5.92243 -23.2909,-17.89923 -3.0518,-8.59042 -3.8016,-33.09692 -1.5343,-50.14925 0.8745,-6.57716 1.59,-15.86707 1.59,-20.64425 0,-8.2048 0.1607,-8.85776 2.9012,-11.79153 2.4075,-2.57723 3.6609,-3.10576 7.3652,-3.10576 5.2088,0 9.7336,2.94603 9.7336,6.33739 0,1.20573 -0.8554,3.7883 -1.901,5.73906 -3.3517,6.25371 -4.1597,11.03366 -5.1191,30.28688 -1.0257,20.58195 -0.1488,34.47553 2.4992,39.59621 2.0182,3.90281 7.0134,7.03181 11.2334,7.03672 4.9938,0.006 14.1354,-3.86518 18.5786,-7.86706 5.2164,-4.69833 7.3027,-9.58436 8.7507,-20.49369 1.6432,-12.38052 0.7635,-41.94148 -1.5319,-51.47472 -1.7363,-7.21104 -1.732,-7.38567 0.2451,-10 1.7673,-2.33689 2.6726,-2.6482 7.4366,-2.5574 10.8966,0.20771 13.553,3.74518 11.1985,14.91262 -0.8475,4.01997 -1.2827,16.00309 -1.3258,36.51022 -0.065,30.9055 0.864,44.47293 3.4728,50.71672 1.7811,4.26275 0.7198,6.62326 -3.6652,8.15187 -1.7436,0.60785 -3.2156,1.02953 -3.2711,0.93708 -0.055,-0.0925 -1.9007,-0.34753 -4.1007,-0.56683 z m -362.3409,-2.17481 c -9.5526,-3.29894 -17.4071,-12.89141 -22.1596,-27.06263 -6.7128,-20.01634 2.1938,-58.19834 17.0302,-73.00788 11.6549,-11.63379 27.8958,-15.75749 43.3096,-10.99666 12.0888,3.73385 20.7448,14.34205 25.2764,30.97691 2.4565,9.01776 2.5028,32.83777 0.082,42 -5.6049,21.20937 -19.2127,35.6841 -36.657,38.99235 -8.4514,1.60278 -20.831,1.18734 -26.8812,-0.90209 z m 25.1126,-14.28982 c 9.2668,-2.77642 19.901,-16.9473 23.1908,-30.90355 3.8302,-16.2487 -0.3641,-41.08228 -8.1225,-48.0919 -3.3273,-3.00622 -10.7152,-5.76048 -15.5121,-5.78303 -4.19,-0.0197 -5.0155,0.37544 -8,3.82911 -3.916,4.53155 -7.2985,6.52065 -9.9219,5.83462 -3.9586,-1.0352 -10.1424,9.58167 -13.4034,23.01189 -2.2039,9.0771 -1.6997,29.3014 0.9051,36.30242 4.1991,11.28608 11.2224,16.97486 20.9762,16.99054 3.2362,0.005 7.6857,-0.53034 9.8878,-1.1901 z m 201.2282,14.22358 c -5.0469,-1.29749 -7.9774,-2.71347 -11.1623,-5.39337 -4.8197,-4.05551 -10.1836,-12.60323 -12.9833,-20.68975 -4.5525,-13.14923 -3.2206,-31.82773 3.6595,-51.32053 3.9692,-11.24543 7.0829,-16.47597 13.3189,-22.37375 9.2382,-8.73708 20.7867,-12.94284 32.7832,-11.93904 21.9845,1.83953 34.3253,18.72267 35.615,48.72395 0.6855,15.94508 -1.1575,26.13422 -6.8318,37.77139 -7.0413,14.44067 -18.2066,23.23764 -32.0302,25.23611 -7.4886,1.08263 -18.1272,1.07549 -22.369,-0.015 z m 24.1564,-16.009 c 8.1779,-3.58042 16.1375,-14.57464 19.9201,-27.51502 1.9775,-6.76487 2.2083,-22.30265 0.468,-31.5 -2.6289,-13.89376 -10.1533,-22.01858 -21.1265,-22.81231 l -6.0924,-0.44069 -4.8534,4.78037 c -3.7605,3.70403 -5.5422,4.76078 -7.9129,4.69338 -2.3278,-0.0662 -3.63,0.67427 -5.4452,3.09613 -11.2548,15.01708 -13.7977,42.45536 -5.5117,59.47358 5.8533,12.02178 17.5266,15.92811 30.554,10.22456 z m 147.3437,15.36767 c -0.825,-0.31168 -4.3088,-1.92567 -7.7416,-3.58665 -5.4146,-2.6198 -6.3726,-3.5062 -7.2298,-6.68953 -1.2537,-4.65603 0.2442,-10.48379 3.2327,-12.57703 1.201,-0.84121 2.5088,-1.52948 2.9061,-1.52948 0.3973,0 2.6124,2.01639 4.9222,4.48087 7.9827,8.51683 17.92445,10.83158 26.92565,6.26913 6.9601,-3.52785 10.9234,-12.43639 8.9037,-20.01313 -2.0556,-7.71164 -8.2986,-12.19404 -28.19145,-20.24132 -8.2282,-3.32858 -14.0017,-9.31221 -16.2322,-16.8231 -4.6655,-15.71045 2.5684,-28.90059 18.5048,-33.7411 9.88855,-3.00356 23.04615,-2.43024 31.33705,1.36546 l 5.6629,2.59254 -0.015,4.80533 c -0.029,9.48938 -3.9787,12.63928 -9.341,7.44969 -4.2519,-4.11495 -9.5212,-6.14877 -15.8622,-6.12241 -10.53975,0.0438 -16.78215,5.21185 -16.78215,13.89358 0,5.97264 4.2678,10.3561 12.79525,13.14181 23.1266,7.55499 34.5835,20.47735 32.851,37.05309 -1.3721,13.12783 -7.0794,22.00829 -17.414,27.09601 -6.0878,2.99699 -7.5534,3.29615 -17.1937,3.5096 -5.79625,0.12833 -11.21355,-0.0217 -12.03855,-0.33336 z m 78.69805,-1.35253 c -13.13,-5.13038 -23.8823,-18.94747 -28.088,-36.09405 -2.2938,-9.35166 -2.1246,-25.60439 0.3681,-35.35067 2.5872,-10.116 6.1412,-16.46243 12.684,-22.65037 7.2772,-6.88243 14.7754,-10.17537 24.4447,-10.73511 10.0746,-0.58321 16.658,1.56455 23.0111,7.5071 5.2512,4.91195 7.6851,9.52279 10.3358,19.58096 1.7057,6.47235 1.7079,7.00714 0.045,11.5 -2.1522,5.81672 -3.826,7.21198 -8.6516,7.21198 -7.5512,0 -41.0248,8.94736 -44.1977,11.81385 -2.5376,2.29254 -1.6647,9.42043 2.1525,17.57769 8.38,17.90759 23.254,21.4948 42.9757,10.36457 4.5316,-2.5575 5.7218,-2.84933 7.7856,-1.909 2.0625,0.93971 2.4363,1.80865 2.4363,5.66357 0,5.40215 -2.1079,10.95201 -4.6654,12.28353 -1.009,0.52535 -6.0311,1.91157 -11.1602,3.08049 -11.6964,2.66562 -22.901,2.72472 -29.4764,0.15546 z m 13.802,-67.51269 c 12.6409,-3.70377 13.8596,-4.63438 13.2422,-10.11191 -1.3304,-11.80296 -15.1449,-18.357 -26.4657,-12.55614 -5.2553,2.69286 -10.3783,7.73799 -12.5898,12.39831 -2.2609,4.76456 -2.2284,11.31537 0.063,12.74334 2.7436,1.70959 15.7307,0.46202 25.75,-2.4736 z m -565.50015,67.57297 -3.4999,-0.59044 -0.8891,-9.62527 c -0.6704,-7.25889 -0.4728,-13.651 0.8039,-26 3.1898,-30.85254 3.7709,-41.40191 3.4144,-61.98765 -0.2679,-15.47387 -0.6956,-21.02107 -1.7155,-22.25 -1.7406,-2.09734 -7.5706,-2.11883 -23.1999,-0.0855 -14.5458,1.89235 -17.2273,1.17378 -17.7206,-4.74854 -0.1688,-2.02552 0.4053,-5.05982 1.2757,-6.7429 l 1.5824,-3.06014 23.2243,-0.22016 c 12.7734,-0.12109 28.6545,-0.0703 35.2913,0.11294 6.6368,0.18321 17.7628,-0.22697 24.7246,-0.91151 11.5669,-1.13736 12.8838,-1.09636 15.2833,0.47579 2.4175,1.58402 2.5706,2.08991 1.9318,6.38167 -1.1094,7.45327 -0.8693,7.36496 -17.9265,6.59251 -20.2209,-0.91572 -21.7121,-0.34345 -24.037,9.22466 -2.9915,12.31174 -4.6854,80.35155 -2.3847,95.78801 1.8998,12.74602 1.7512,14.81772 -1.1585,16.15867 -3.2658,1.50505 -10.591,2.23164 -15,1.48786 z m 251.328,-2.02861 c -8.3828,-3.80605 -8.627,-5.52987 -5.7361,-40.49441 1.7413,-21.06153 1.6514,-31.41929 -0.6517,-75.06742 -1.0807,-20.48157 -1.0409,-23.40821 0.363,-26.7281 2.7686,-6.54716 12.2978,-10.15087 15.9236,-6.0219 2.5509,2.90497 2.8192,5.50248 1.1104,10.75 -1.3987,4.29562 -1.6934,12.78537 -2.0913,60.26396 -0.2548,30.39518 -0.1687,56.83407 0.1914,58.75309 0.5204,2.77406 1.4731,3.90675 4.6489,5.52692 6.9733,3.55749 7.1583,10.18854 0.3741,13.40784 -4.3258,2.05276 -9.0386,1.92271 -14.1323,-0.38998 z"
       style="fill:#404141;fill-opacity:1;fill-rule:evenodd;stroke:#404141;stroke-width:0;stroke-miterlimit:2.80000019;stroke-opacity:1;stroke-dasharray:none"
       id="path3794">Toulouse</path>
  </g>
</g>
 Nous découvrons comment mieux développer des logiciels
par la pratique et en aidant les autres à le faire.
Ces expériences nous ont amenés à valoriser :

Les individus et leurs interactions plus que les processus et les outils
Des logiciels opérationnels plus qu’une documentation exhaustive
La collaboration avec les clients plus que la négociation contractuelle
L’adaptation au changement plus que le suivi d’un plan

Nous reconnaissons la valeur des seconds éléments,
mais privilégions les premiers.


Kent Beck
Mike Beedle
Arie van Bennekum
Alistair Cockburn
Ward Cunningham
Martin Fowler
James Grenning
Jim Highsmith
Andrew Hunt
Ron Jeffries
Jon Kern
Brian Marick

</g>
</svg>
