<?xml version="1.0" encoding="UTF-8" standalone="no"?>
<!-- Created with Inkscape (http://www.inkscape.org/) -->

<svg
   xmlns:dc="http://purl.org/dc/elements/1.1/"
   xmlns:cc="http://creativecommons.org/ns#"
   xmlns:rdf="http://www.w3.org/1999/02/22-rdf-syntax-ns#"
   xmlns:svg="http://www.w3.org/2000/svg"
   xmlns="http://www.w3.org/2000/svg"
   xmlns:sodipodi="http://sodipodi.sourceforge.net/DTD/sodipodi-0.dtd"
   xmlns:inkscape="http://www.inkscape.org/namespaces/inkscape"
   width="134.66223"
   height="90.019638"
   id="svg2"
   version="1.1"
   inkscape:version="0.48.4 r9939"
   sodipodi:docname="Nouveau document 1"><defs
   id="defs4" />
<sodipodi:namedview
   id="base"
   pagecolor="#ffffff"
   bordercolor="#666666"
   borderopacity="1.0"
   inkscape:pageopacity="0.0"
   inkscape:pageshadow="2"
   inkscape:zoom="4.528125"
   inkscape:cx="111.92654"
   inkscape:cy="92.121332"
   inkscape:document-units="px"
   inkscape:current-layer="layer1"
   showgrid="false"
   fit-margin-top="0"
   fit-margin-left="0"
   fit-margin-right="0"
   fit-margin-bottom="0"
   inkscape:window-width="1920"
   inkscape:window-height="1025"
   inkscape:window-x="-2"
   inkscape:window-y="-3"
   inkscape:window-maximized="1" />
<metadata
   id="metadata7">
  <rdf:RDF>
    <cc:Work
       rdf:about="">
      <dc:format>image/svg+xml</dc:format>
      <dc:type
         rdf:resource="http://purl.org/dc/dcmitype/StillImage" />
      <dc:title></dc:title>
    </cc:Work>
  </rdf:RDF>
</metadata>
<g
   inkscape:label="Calque 1"
   inkscape:groupmode="layer"
   id="layer1"
   transform="translate(-415.11131,-659.02777)">
  <g
     id="g3033"
     transform="translate(299.82499,298.57572)" />
  <g
     id="g3027"
     transform="translate(1008.5228,115.88194)">
    <path
       style="fill:#fefefe"
       d="m -265.91754,596.54437 0,-499.999997 670.5,0 670.50004,0 0,499.999997 0,500.00003 -670.50004,0 -670.5,0 0,-500.00003 z"
       id="path3031"
       inkscape:connector-curvature="0" />
    <g
       id="g3040">
      <path
         sodipodi:nodetypes="sccccccccssccccccccc"
         inkscape:connector-curvature="0"
         id="path3035"
         d="m 119.48801,450.37635 c -1.19967,-0.013 -3.27281,-1.8384 -3.53197,-3.47217 l -0.65616,-77.0593 c -0.20238,-3.33538 1.87277,-7.00469 5.41119,-9.09313 33.72999,0.0801 73.42569,-0.2997 124.30436,-0.2997 3.5259,0.0247 4.9193,1.86829 4.90909,4.90909 l 0,40.09091 0,40.09091 c 0.34389,6.26145 -3.08659,4.07933 -4.90909,4.90909 l -61.93467,0 c -59.47794,0 -49.44984,0.0776 -63.59275,-0.0757 z m 129.43651,-38.9243 0,-27 -66,0 -66,0 0,27 0,27 66,0 66,0 z"
         style="fill:#e41e3b"
         transform="translate(-708.69781,182.69378)" />
      <path
         inkscape:connector-curvature="0"
         id="path3029"
         d="m -480.52281,621.75699 c -1.1063,-0.031 -1.89352,-0.0879 -2.00358,-0.1449 -0.43923,-0.22735 -1.01266,-3.02711 -1.50958,-7.37058 -0.49727,-4.34651 -1.14106,-6.67476 -2.2764,-8.23251 -0.14094,-0.19336 -0.23527,-0.40302 -0.20963,-0.46589 0.0612,-0.15005 0.57821,-0.39282 1.22653,-0.57594 0.28636,-0.0809 0.56809,-0.18636 0.62607,-0.23438 0.0627,-0.0519 0.23039,-1.04772 0.41359,-2.45564 0.38796,-2.9816 0.57037,-4.04217 1.01028,-5.87354 1.16289,-4.84145 2.28566,-7.16683 4.33747,-8.98341 0.91803,-0.81278 1.62766,-1.28381 2.52066,-1.67313 2.23558,-0.97464 4.70873,-0.86408 7.75283,0.34658 0.52498,0.20879 1.20369,0.51771 1.50822,0.68648 0.53519,0.29661 0.56339,0.32903 0.84318,0.96951 1.71301,3.92135 1.49708,8.31565 -0.59149,12.03669 -2.24823,4.00552 -6.70813,7.36628 -11.21845,8.45367 -0.33408,0.0805 -0.65614,0.18798 -0.71569,0.23875 -0.16976,0.14475 -0.30909,2.85599 -0.25417,4.94608 0.0787,2.99416 0.46173,5.50091 1.14013,7.46149 0.16885,0.48799 0.307,0.90143 0.307,0.91877 0,0.0173 -0.24405,0.0251 -0.54235,0.0172 -0.29829,-0.008 -1.36236,-0.0372 -2.36462,-0.0654 z m 2.62297,-18.50367 c 3.23613,-1.14561 6.0037,-4.4315 6.84364,-8.12536 0.191,-0.83994 0.21966,-2.88746 0.0508,-3.63091 -0.24548,-1.08097 -0.8847,-2.62608 -1.15031,-2.78059 -0.18848,-0.10962 -1.66044,1.52909 -2.42584,2.70064 -0.8823,1.35047 -2.04352,3.77282 -2.63365,5.49391 -0.44103,1.2862 -1.52876,5.80545 -1.52876,6.35161 0,0.25235 0.10834,0.25116 0.84408,-0.009 z m -38.01196,6.44292 c -0.0323,-0.0304 -0.0592,-0.59128 -0.0596,-1.24633 -8.8e-4,-1.38363 -0.10693,-3.19005 -0.34527,-5.88688 -0.0933,-1.05556 -0.19596,-2.38771 -0.22814,-2.96035 -0.0345,-0.61432 -0.0992,-1.07288 -0.15757,-1.11852 -0.0933,-0.0728 -0.66711,-0.13601 -2.96808,-0.32665 -1.13992,-0.0944 -2.00746,-0.27131 -2.54793,-0.51945 -0.37631,-0.17275 -0.39148,-0.19392 -0.41761,-0.58284 -0.0574,-0.85459 0.45215,-1.50145 1.32819,-1.68597 0.38954,-0.082 0.79612,-0.0826 2.02095,-0.003 1.39551,0.0909 1.54263,0.0878 1.63711,-0.0338 0.165,-0.21235 0.24849,-1.26186 0.23368,-2.93721 -0.0147,-1.65757 -0.1218,-2.82895 -0.5901,-6.45175 -0.56641,-4.38181 -0.60619,-4.85277 -0.60702,-7.18675 -8.9e-4,-1.70738 0.034,-2.41699 0.15323,-3.1442 0.16049,-0.97875 0.53662,-2.44157 0.65691,-2.55477 0.0383,-0.036 0.47601,0.007 0.97274,0.0945 0.49673,0.088 1.17649,0.20204 1.51057,0.25347 0.7996,0.12311 1.68224,0.53054 2.42206,1.11803 0.94219,0.74819 0.93188,0.72401 0.74268,1.74214 -0.40554,2.18236 -0.42588,4.87197 -0.075,9.92264 0.11727,1.68806 0.19155,3.74106 0.20976,5.7984 l 0.0282,3.18504 0.27719,0.0263 c 0.68768,0.0653 1.00207,-0.29663 1.09805,-1.26402 0.0565,-0.56928 0.18247,-0.76315 0.49592,-0.76315 0.35575,0 1.20969,0.47437 1.96011,1.08887 0.91492,0.7492 2.71189,2.5634 2.66826,2.69386 -0.0427,0.12779 -1.0264,0.43599 -1.72245,0.53967 -0.30543,0.0455 -1.31677,0.14007 -2.24744,0.21014 -2.32903,0.17538 -2.58588,0.20858 -2.71095,0.35034 -0.17853,0.20237 -0.18882,3.81755 -0.0219,7.72134 0.1017,2.38017 0.12121,3.52491 0.0609,3.58165 -0.0487,0.0458 -0.72679,0.13336 -1.5068,0.19445 -0.78003,0.0611 -1.59677,0.13108 -1.81501,0.15554 -0.21822,0.0244 -0.42323,0.0195 -0.45557,-0.0109 z m -28.56744,-0.63627 c -2.37064,-0.34682 -3.97772,-1.48325 -5.07521,-3.5889 -1.19356,-2.28993 -1.44476,-5.24537 -0.73114,-8.60186 0.43248,-2.03408 1.1273,-3.63589 2.28233,-5.26153 1.40624,-1.97922 2.9943,-2.86994 4.87944,-2.73682 0.75391,0.0532 3.97542,0.80652 4.07088,0.95189 0.0891,0.13562 0.42287,1.97249 0.57116,3.14291 0.1872,1.47772 0.24813,3.83625 0.13084,5.06481 -0.10814,1.13285 -0.33745,2.49561 -0.44832,2.66444 -0.0536,0.0817 -0.17897,0.0824 -0.61602,0.004 -0.45631,-0.0821 -4.39691,-0.34619 -5.57442,-0.37361 l -0.33985,-0.008 -0.10896,0.44918 c -0.73357,3.02349 -0.019,5.64136 1.7653,6.4681 0.53849,0.24949 0.64294,0.26911 1.40783,0.26438 0.69257,-0.004 1.05778,-0.0636 2.25799,-0.36632 2.27688,-0.57442 3.31514,-0.49873 3.95289,0.28817 0.12736,0.15717 0.20998,0.33873 0.18358,0.40348 -0.0582,0.14278 -1.66545,0.64149 -2.93996,0.91226 -1.93358,0.41079 -4.19122,0.53966 -5.66836,0.32356 z m 1.10871,-10.86267 c 0.34048,-0.13387 0.36533,-0.21076 0.4658,-1.44095 0.095,-1.16356 -0.23363,-3.54427 -0.48929,-3.54427 -0.14415,0 -0.85071,0.93025 -1.20957,1.59251 -0.5474,1.01021 -1.13234,2.98777 -0.93787,3.17078 0.0458,0.0431 0.22608,0.0606 0.40064,0.0388 0.19719,-0.0246 0.49814,0.0225 0.79466,0.12419 0.59285,0.2034 0.60618,0.20421 0.97563,0.059 z m 14.4704,10.28936 c -1.10006,-0.17234 -2.19322,-0.49503 -3.18838,-0.94117 -2.27892,-1.02168 -3.4826,-2.25255 -3.89062,-3.97852 -0.12349,-0.52246 -0.14011,-0.88148 -0.0974,-2.10324 0.16727,-4.77624 1.51343,-8.54043 4.10813,-11.4874 0.62132,-0.70567 1.8955,-1.86601 2.38142,-2.16865 l 0.32487,-0.20233 0.74478,0.13134 c 1.43838,0.25366 2.65407,0.69949 3.78514,1.3881 l 0.6179,0.37619 -0.0575,0.54886 c -0.0317,0.30189 -0.17151,1.39413 -0.31078,2.42723 -0.62265,4.61862 -0.77205,6.13772 -0.77267,7.8557 0,0.67657 -0.0332,1.01469 -0.10277,1.05517 -0.0563,0.0328 -0.64329,0.0971 -1.30439,0.14298 -1.09543,0.076 -1.35755,0.0648 -2.95645,-0.1266 -2.05564,-0.24608 -1.95381,-0.27714 -2.18168,0.66575 -0.36191,1.4975 0.038,2.791 1.19884,3.87857 1.50579,1.41063 3.57543,1.81432 5.34608,1.04277 0.30649,-0.13355 0.70298,-0.42242 1.10809,-0.80732 0.34696,-0.32965 0.68993,-0.59936 0.76217,-0.59936 0.22328,0 0.95814,0.3878 1.24311,0.656 0.14902,0.14023 0.2966,0.35123 0.32798,0.46888 0.0484,0.18125 8.8e-4,0.25961 -0.31258,0.51348 -0.52574,0.42615 -1.54262,0.87577 -2.51212,1.11074 -1.06206,0.25742 -3.12206,0.3313 -4.26122,0.15283 z m -0.30631,-9.21076 c 0.3238,-0.43303 0.62853,-1.7765 0.70823,-3.12226 0.0699,-1.18195 -0.27688,-3.53651 -0.52747,-3.58049 -0.1016,-0.0178 -1.2187,2.56983 -1.69484,3.92579 -0.38474,1.09566 -0.5822,2.07258 -0.48931,2.42092 0.0835,0.31317 0.633,0.53569 1.32856,0.53801 0.45997,0.002 0.55722,-0.0247 0.67483,-0.18197 z m 30.19273,8.97017 c -1.50808,-0.32542 -2.75014,-1.38077 -3.55298,-3.01889 -0.89843,-1.83313 -1.31948,-4.10561 -1.40148,-7.56421 -0.0491,-2.07035 0.0863,-5.44812 0.22364,-5.57733 0.19203,-0.18074 1.51539,0.27115 3.25157,1.11032 l 1.7473,0.84454 -0.0306,1.83165 c -0.0434,2.59444 0.15223,5.59345 0.55345,8.48757 0.17,1.22629 0.19215,1.30668 0.3599,1.30668 0.32397,0 1.32072,-0.63012 1.99099,-1.25867 0.59919,-0.56188 0.77053,-0.78857 1.14741,-1.51802 0.87577,-1.69508 1.26489,-4.04513 1.45194,-8.76872 l 0.061,-1.5411 0.66056,0.0387 c 0.9134,0.0535 1.8441,0.41291 3.10928,1.20075 0.5656,0.3522 1.08314,0.70248 1.1501,0.77841 0.19639,0.22271 0.1761,2.58668 -0.0299,3.47357 -0.38981,1.6789 -0.62221,2.16918 -2.20645,4.65505 -0.70856,1.11181 -1.06809,1.58334 -1.61902,2.12336 -0.75508,0.74013 -1.22352,1.29569 -1.93907,2.29972 -0.48676,0.68301 -0.55484,0.72028 -1.83952,1.00715 -0.8182,0.18269 -2.43871,0.22965 -3.08826,0.0895 z m -57.4349,-0.97177 c -0.18377,-0.26395 -1.13613,-2.6649 -1.94942,-4.9146 -1.17272,-3.24392 -2.32246,-7.0177 -3.01221,-9.88689 -0.20517,-0.85347 -0.36226,-1.34326 -0.43083,-1.34326 -0.0593,0 -0.22352,0.28482 -0.36484,0.63293 -0.58533,1.44181 -0.7851,2.92216 -0.88446,6.55383 -0.097,3.54498 -0.27281,5.10555 -0.71574,6.35272 l -0.19469,0.54821 -0.44087,-0.0249 c -0.24248,-0.0138 -1.09033,0.0506 -1.88411,0.14292 -0.7938,0.0923 -1.89287,0.16784 -2.44242,0.16784 -0.94328,0 -1.00579,-0.0103 -1.11747,-0.18376 -0.065,-0.10106 -0.55911,-0.88182 -1.09789,-1.73502 -1.43918,-2.27908 -3.51429,-5.1801 -3.70823,-5.18415 -0.29147,-0.006 -0.35967,1.13847 -0.15316,2.57037 0.25172,1.74538 0.32102,2.57366 0.26011,3.10893 l -0.0616,0.54128 -0.62129,0.26638 c -0.86244,0.36977 -1.83916,0.66863 -2.66993,0.81696 -0.71504,0.12765 -1.68703,0.166 -1.93525,0.0763 -0.18723,-0.0676 -0.44031,-0.87708 -0.78921,-2.52426 -0.66134,-3.12216 -0.87039,-6.17069 -0.79237,-11.55493 0.0303,-2.08866 0.0807,-4.32017 0.11188,-4.95893 l 0.0569,-1.16139 0.41892,-0.13095 c 1.00472,-0.31408 2.03206,-0.45586 3.64163,-0.50257 l 1.61422,-0.0468 0.39288,0.52156 c 0.75898,1.00756 1.82908,2.83969 3.59596,6.15663 1.9612,3.68176 2.09997,3.92235 2.2053,3.82322 0.0398,-0.0374 0.30695,-1.10552 0.59386,-2.37366 0.64273,-2.84081 0.64016,-2.83132 1.49679,-5.53295 0.81135,-2.5588 1.28101,-3.74903 1.94765,-4.93589 0.45579,-0.81147 1.23601,-1.95011 1.451,-2.11762 0.0648,-0.0505 0.49942,-0.0205 1.22837,0.0846 0.62436,0.0901 1.70928,0.17392 2.42971,0.18779 l 1.30163,0.0251 0.2378,0.43799 c 0.52824,0.97298 1.51623,3.84519 2.27164,6.60391 0.46722,1.7063 0.89541,3.5184 1.61132,6.81925 1.15615,5.33056 1.96994,8.4947 2.82484,10.98356 0.16509,0.48059 0.30016,0.90203 0.30016,0.93655 0,0.0345 -0.17677,0.0378 -0.39283,0.007 -0.21605,-0.0305 -0.6163,-0.0138 -0.88945,0.0371 -0.38441,0.0717 -2.5378,0.6481 -3.20818,0.85883 -0.0596,0.0187 -0.16581,-0.0485 -0.23609,-0.1495 z"
         style="fill:#040404" />
    </g>
  </g>
</g>
Meetup</svg>
